<?xml version="1.0" standalone="no"?>
<!DOCTYPE svg PUBLIC "-//W3C//DTD SVG 20010904//EN"
 "http://www.w3.org/TR/2001/REC-SVG-20010904/DTD/svg10.dtd">
<svg version="1.0" xmlns="http://www.w3.org/2000/svg"
 width="180pt" height="180pt" viewBox="700 0 3500.000000 2969.000000"
 preserveAspectRatio="xMidYMid meet">

<g transform="translate(0.000000,2969.000000) scale(0.100000,-0.100000)"
fill="#000000" stroke="none">
<path d="M24560 25283 c-52 -7 -108 -20 -125 -27 -16 -8 -52 -17 -79 -21 -28
-4 -87 -27 -141 -56 -50 -27 -98 -49 -106 -49 -8 0 -34 -18 -59 -40 -25 -22
-54 -43 -65 -46 -11 -4 -34 -21 -51 -38 -17 -17 -46 -45 -65 -61 -49 -44 -110
-113 -144 -163 -15 -24 -36 -47 -46 -52 -9 -5 -20 -26 -23 -45 -4 -20 -13 -38
-21 -41 -8 -3 -19 -21 -25 -39 -6 -18 -20 -41 -30 -50 -11 -10 -20 -27 -20
-39 0 -18 -14 -67 -77 -261 -10 -30 -18 -99 -21 -172 -4 -120 -4 -123 22 -153
14 -18 26 -37 26 -43 0 -15 61 -64 95 -77 14 -5 38 -19 54 -31 47 -35 128 -24
216 29 93 56 116 94 126 220 5 56 14 101 24 114 8 12 15 36 15 53 0 50 19 101
55 152 19 26 39 58 44 70 10 23 109 123 155 158 15 11 38 30 53 42 14 13 42
25 62 29 20 4 43 12 51 19 8 6 49 25 90 40 65 24 94 29 208 33 73 2 194 1 268
-3 l134 -7 6 -37 c6 -41 74 -120 125 -146 16 -9 35 -31 43 -49 8 -19 23 -39
35 -45 24 -13 107 -182 122 -249 5 -25 15 -52 22 -60 17 -21 16 -254 -2 -276
-7 -9 -18 -37 -22 -63 -5 -25 -15 -54 -23 -62 -8 -9 -22 -46 -31 -83 -10 -37
-32 -90 -51 -118 -18 -28 -42 -71 -53 -95 -11 -25 -36 -61 -55 -81 -20 -21
-36 -46 -36 -56 0 -10 -10 -29 -22 -41 -24 -24 -28 -29 -97 -129 -24 -34 -48
-65 -53 -66 -5 -2 -24 -29 -44 -59 -19 -30 -44 -57 -54 -60 -10 -3 -22 -17
-25 -32 -3 -15 -24 -48 -46 -72 -22 -24 -58 -76 -80 -115 -21 -40 -45 -74 -53
-77 -7 -3 -18 -26 -25 -51 -6 -25 -16 -46 -21 -46 -5 0 -15 -18 -21 -41 -7
-22 -20 -46 -29 -52 -9 -7 -21 -32 -27 -57 -14 -55 -34 -109 -67 -182 -14 -30
-30 -84 -35 -119 -6 -35 -16 -80 -21 -99 -6 -19 -15 -75 -21 -125 -5 -49 -15
-95 -22 -102 -7 -7 -66 -14 -157 -18 -83 -4 -161 -12 -182 -20 -20 -8 -88 -19
-150 -25 -62 -6 -135 -18 -163 -25 -27 -8 -96 -19 -153 -24 -57 -6 -111 -15
-121 -21 -10 -5 -51 -16 -92 -25 -41 -9 -90 -23 -110 -30 -20 -8 -65 -16 -100
-20 -35 -3 -82 -15 -104 -25 -52 -25 -157 -59 -220 -72 -27 -6 -57 -14 -65
-19 -46 -28 -180 -78 -237 -88 -26 -5 -52 -17 -59 -26 -7 -9 -29 -21 -50 -27
-22 -5 -46 -16 -54 -23 -8 -7 -34 -16 -57 -20 -24 -4 -43 -11 -43 -16 0 -6
-22 -19 -50 -31 -27 -11 -50 -24 -50 -29 0 -4 -17 -11 -37 -15 -36 -6 -56 -16
-151 -79 -21 -14 -48 -25 -60 -25 -12 0 -31 -9 -43 -21 -11 -11 -35 -27 -53
-34 -18 -8 -38 -20 -45 -28 -6 -8 -28 -18 -47 -22 -19 -3 -38 -13 -41 -21 -3
-8 -38 -33 -78 -55 -40 -22 -79 -46 -85 -54 -7 -8 -18 -15 -26 -15 -7 0 -18
-9 -24 -20 -6 -10 -28 -24 -49 -30 -21 -6 -41 -17 -45 -25 -3 -8 -31 -31 -63
-51 -32 -20 -81 -57 -110 -80 -28 -24 -55 -44 -59 -44 -4 0 -31 -22 -60 -50
-29 -27 -62 -50 -73 -50 -12 0 -21 -4 -21 -10 0 -18 -60 -78 -84 -84 -14 -3
-27 -14 -31 -24 -3 -11 -25 -33 -49 -50 -60 -44 -404 -387 -456 -456 -23 -30
-50 -58 -60 -61 -10 -3 -21 -17 -24 -30 -3 -13 -26 -41 -51 -62 -25 -20 -45
-43 -45 -50 0 -7 -22 -38 -50 -68 -27 -30 -50 -60 -50 -67 0 -6 -9 -20 -20
-32 -37 -37 -76 -90 -103 -138 -15 -26 -35 -49 -46 -53 -10 -3 -23 -22 -30
-44 -6 -21 -18 -44 -26 -51 -8 -7 -15 -20 -15 -29 0 -9 -13 -32 -30 -51 -16
-19 -29 -42 -30 -50 0 -9 -18 -35 -41 -58 -22 -23 -45 -57 -51 -74 -11 -32
-39 -79 -76 -128 -10 -14 -24 -44 -30 -66 -7 -23 -19 -45 -27 -48 -8 -3 -15
-14 -15 -25 0 -11 -11 -32 -24 -48 -13 -15 -26 -44 -30 -64 -4 -21 -13 -42
-21 -49 -7 -6 -17 -25 -20 -41 -4 -16 -17 -42 -29 -57 -13 -15 -26 -44 -29
-66 -3 -21 -12 -46 -20 -55 -8 -9 -18 -29 -21 -46 -4 -16 -16 -39 -26 -50 -9
-11 -23 -45 -30 -75 -7 -30 -21 -73 -31 -94 -11 -22 -19 -45 -19 -51 0 -6 -9
-28 -20 -49 -10 -21 -26 -70 -34 -110 -8 -39 -22 -84 -30 -101 -9 -16 -16 -42
-16 -56 0 -14 -9 -34 -19 -43 -14 -13 -21 -37 -26 -84 -3 -37 -13 -89 -20
-117 -50 -182 -68 -264 -80 -365 -8 -63 -19 -153 -25 -200 -16 -126 -31 -429
-24 -477 3 -23 12 -47 20 -54 7 -6 16 -27 20 -46 5 -25 14 -37 33 -44 14 -6
35 -19 46 -29 30 -28 112 -60 154 -60 39 0 161 54 161 71 0 5 11 14 25 19 14
5 28 18 32 27 4 10 15 29 25 43 15 21 19 60 27 250 10 236 31 397 63 492 10
32 23 92 28 135 8 75 39 195 79 313 10 30 23 78 29 105 12 58 52 165 69 187 7
7 15 34 19 58 4 25 15 61 26 80 10 19 18 42 18 51 0 9 9 28 20 42 12 15 28 50
36 79 15 52 55 138 79 168 6 8 17 35 24 59 7 25 30 70 50 100 20 31 43 75 50
98 8 23 31 63 52 88 22 26 39 55 39 64 0 18 48 95 78 126 10 11 24 36 31 55 6
19 27 52 46 72 19 20 40 47 45 60 18 40 54 92 83 120 15 15 27 33 27 41 0 8
20 32 45 55 25 22 45 48 45 56 0 8 22 39 49 68 83 89 91 98 91 108 0 5 8 15
18 22 11 7 42 40 70 73 81 96 218 235 337 340 61 54 118 106 128 117 10 10 21
18 25 18 4 0 31 23 60 50 29 28 57 50 63 50 6 0 31 20 55 45 23 25 50 45 58
45 9 0 33 17 54 38 21 20 55 46 77 57 22 11 46 28 53 38 7 9 19 17 27 17 8 0
19 8 24 18 5 10 28 24 50 31 22 6 45 19 50 29 5 9 40 33 78 52 37 19 91 51
119 72 28 21 58 38 66 38 8 0 35 13 59 30 24 16 49 30 55 30 6 0 17 7 24 15 7
8 31 20 53 26 23 6 52 19 65 30 14 10 30 19 37 19 7 0 23 9 37 19 13 11 44 24
68 31 24 6 85 32 136 56 50 24 111 46 135 50 24 4 52 15 62 25 10 11 26 19 35
19 10 0 34 9 55 19 20 10 67 24 104 31 38 7 86 21 108 31 63 28 183 60 270 71
44 5 98 18 120 28 22 10 67 22 100 26 33 4 77 13 98 20 21 7 109 18 195 24 86
6 198 18 247 27 139 24 641 29 810 8 72 -9 208 -22 304 -30 96 -8 210 -23 254
-35 45 -11 95 -20 112 -20 17 0 41 -7 54 -16 13 -10 65 -22 115 -29 92 -13
259 -57 281 -75 7 -5 50 -17 96 -26 46 -8 91 -21 99 -28 8 -7 31 -16 50 -20
19 -3 43 -15 55 -25 11 -10 38 -21 61 -24 22 -2 90 -28 150 -56 61 -28 120
-51 131 -51 11 0 31 -8 44 -19 13 -10 35 -22 49 -26 14 -4 34 -15 45 -25 11
-10 37 -21 57 -25 20 -4 44 -16 54 -26 9 -10 23 -19 29 -19 7 0 24 -9 38 -20
14 -11 44 -27 65 -34 22 -8 64 -31 92 -51 29 -21 67 -44 84 -52 63 -30 86 -44
96 -63 5 -10 23 -21 40 -25 17 -4 37 -14 46 -22 23 -23 73 -59 115 -82 20 -11
55 -38 79 -61 23 -22 48 -40 57 -40 8 0 27 -13 42 -29 15 -16 43 -40 62 -52
33 -23 52 -39 102 -84 12 -12 42 -36 67 -55 25 -19 57 -46 71 -60 14 -14 42
-38 62 -54 20 -16 37 -35 37 -43 0 -7 5 -13 11 -13 14 0 184 -170 192 -192 4
-10 13 -18 21 -18 7 0 20 -10 29 -22 8 -13 39 -50 68 -84 30 -33 72 -82 94
-109 22 -27 50 -59 63 -70 12 -12 22 -27 22 -33 0 -6 23 -33 50 -61 28 -28 50
-60 50 -71 0 -11 11 -27 25 -36 14 -9 38 -38 52 -63 26 -45 35 -57 94 -135 16
-21 29 -47 29 -57 0 -9 11 -26 25 -37 14 -11 39 -47 55 -81 17 -33 48 -86 70
-117 22 -32 40 -65 40 -74 0 -9 11 -31 24 -49 13 -18 30 -46 36 -62 7 -16 16
-29 20 -29 4 0 13 -20 19 -45 6 -24 22 -61 36 -81 14 -20 25 -42 25 -49 0 -7
6 -18 14 -24 8 -7 20 -35 26 -64 6 -28 16 -58 23 -67 24 -28 76 -154 83 -200
4 -25 13 -52 20 -61 19 -21 53 -119 71 -204 8 -38 21 -77 28 -85 7 -8 17 -35
23 -60 6 -25 20 -77 30 -115 11 -39 23 -102 27 -140 4 -39 13 -79 20 -90 7
-11 17 -47 23 -80 40 -221 52 -346 52 -572 0 -89 4 -125 14 -135 7 -8 21 -29
31 -48 21 -40 59 -74 122 -106 94 -48 157 -43 258 23 60 39 107 109 119 174 7
41 -19 478 -34 554 -5 28 -14 102 -21 165 -6 68 -21 143 -35 183 -13 38 -24
79 -24 93 0 14 -7 40 -14 59 -8 19 -20 69 -26 112 -6 42 -17 84 -25 93 -8 9
-15 22 -15 28 0 6 -13 52 -30 102 -16 50 -30 101 -30 113 0 13 -9 41 -20 62
-23 45 -74 185 -85 229 -3 16 -15 41 -26 54 -10 14 -19 32 -19 42 0 10 -8 28
-19 41 -10 13 -22 38 -25 56 -4 17 -29 75 -57 128 -27 53 -49 103 -49 111 0 8
-8 27 -18 42 -52 76 -71 110 -77 140 -4 18 -13 36 -20 38 -7 3 -21 23 -29 45
-9 21 -20 39 -26 39 -5 0 -15 19 -21 43 -7 23 -21 49 -31 57 -17 15 -46 60
-70 110 -6 14 -29 47 -51 73 -21 26 -43 63 -48 82 -6 19 -16 35 -23 35 -8 0
-32 30 -54 68 -23 37 -59 87 -82 112 -22 24 -40 50 -40 57 0 8 -22 35 -50 62
-27 27 -50 54 -50 60 0 6 -19 31 -42 56 -57 59 -86 91 -129 145 -29 37 -157
174 -199 215 -6 6 -38 37 -73 71 -65 63 -163 151 -235 212 -24 21 -66 58 -93
85 -28 26 -56 47 -63 47 -7 0 -31 20 -54 45 -22 25 -48 45 -56 45 -9 0 -26 12
-38 26 -13 14 -60 50 -106 81 -46 30 -86 61 -89 69 -3 8 -22 19 -42 25 -21 6
-55 28 -77 48 -22 20 -71 52 -108 71 -37 19 -71 43 -77 52 -5 9 -23 20 -41 23
-18 4 -46 18 -61 31 -16 13 -33 24 -39 24 -5 0 -23 11 -40 25 -16 14 -38 25
-47 25 -10 0 -35 11 -55 25 -20 14 -41 25 -45 25 -5 0 -14 7 -21 15 -7 8 -38
22 -69 31 -31 9 -63 22 -71 30 -30 25 -130 74 -153 74 -14 0 -35 8 -48 19 -13
10 -39 22 -57 26 -18 3 -37 15 -42 26 -7 12 -21 19 -39 19 -33 0 -111 26 -201
67 -36 16 -85 33 -109 37 -24 4 -49 10 -55 14 -33 22 -199 72 -311 96 -105 21
-237 55 -265 67 -14 6 -68 15 -120 20 -52 6 -120 16 -150 24 -30 7 -91 17
-135 20 -44 4 -109 14 -145 22 -36 8 -114 19 -173 23 -140 10 -141 11 -128
120 6 45 15 88 21 94 5 7 14 50 19 97 9 76 18 111 61 229 7 19 19 42 26 50 7
8 15 32 19 53 4 20 16 48 26 61 11 13 19 29 19 34 0 5 7 16 17 23 9 8 27 37
39 66 13 28 39 67 59 87 19 19 35 42 35 51 0 9 15 31 34 49 18 19 55 66 81
105 26 39 51 71 56 71 4 0 24 25 44 55 20 30 45 57 55 60 10 3 21 18 25 33 3
15 19 41 35 57 15 17 49 62 73 100 25 39 54 79 65 90 11 11 25 38 31 60 6 22
18 49 26 59 8 11 15 27 15 37 0 9 9 28 20 42 13 17 25 58 35 119 8 51 20 113
27 138 16 62 16 321 0 390 -7 30 -19 95 -27 143 -7 49 -20 96 -28 105 -8 9
-18 28 -22 42 -4 14 -15 39 -25 55 -10 17 -21 45 -25 63 -4 18 -17 43 -28 56
-12 13 -38 49 -57 81 -19 32 -50 75 -68 94 -19 20 -40 48 -48 63 -8 15 -28 35
-45 43 -16 9 -46 34 -65 55 -20 22 -45 42 -57 46 -12 4 -28 15 -35 25 -7 11
-20 19 -28 19 -8 0 -25 11 -37 24 -12 13 -41 29 -64 35 -22 6 -46 18 -53 25
-6 8 -24 18 -40 21 -16 4 -39 14 -52 24 -13 10 -43 22 -68 26 -25 4 -63 14
-85 22 -58 20 -247 43 -350 42 -49 -1 -133 -8 -185 -16z"/>
<path d="M25048 19981 c-15 -5 -56 -23 -90 -41 -35 -17 -82 -38 -106 -46 -42
-15 -58 -26 -106 -72 -14 -13 -40 -28 -60 -33 -20 -6 -37 -18 -41 -29 -3 -11
-28 -34 -56 -51 -27 -18 -49 -38 -49 -45 0 -13 -65 -74 -79 -74 -5 0 -14 -13
-19 -29 -6 -16 -28 -43 -50 -61 -22 -18 -43 -44 -47 -58 -3 -14 -16 -36 -28
-47 -36 -35 -51 -57 -86 -125 -19 -36 -42 -71 -52 -78 -9 -6 -21 -26 -24 -44
-9 -38 -73 -158 -85 -158 -5 0 -11 -15 -15 -32 -9 -47 -46 -137 -71 -175 -11
-17 -27 -60 -34 -95 -7 -34 -22 -79 -32 -98 -10 -19 -18 -42 -18 -50 0 -8 -9
-29 -20 -47 -10 -18 -22 -56 -26 -85 -4 -29 -15 -72 -25 -95 -11 -23 -19 -52
-19 -63 0 -12 -11 -49 -24 -83 -13 -34 -30 -105 -39 -157 -18 -110 -52 -258
-72 -315 -8 -22 -19 -91 -25 -154 -6 -63 -15 -121 -19 -130 -5 -9 -12 -47 -16
-86 -7 -64 -16 -115 -43 -230 -6 -22 -13 -98 -17 -170 -3 -71 -13 -184 -21
-250 -16 -126 -48 -447 -66 -650 -12 -148 -4 -1108 11 -1250 6 -55 20 -359 33
-675 25 -656 30 -1360 10 -1540 -18 -172 -32 -261 -47 -300 -7 -19 -16 -67
-20 -105 -4 -39 -13 -81 -20 -95 -7 -14 -18 -52 -26 -85 -7 -33 -21 -76 -31
-95 -25 -48 -26 -219 -1 -261 10 -16 21 -29 25 -29 4 0 23 -14 43 -31 34 -30
39 -32 98 -26 86 8 184 58 203 103 8 18 23 38 34 44 11 6 20 17 20 24 0 7 9
21 20 31 11 10 23 34 26 54 6 32 50 123 88 184 8 12 17 37 21 55 4 17 10 32
14 32 10 0 63 83 90 141 12 26 35 58 52 73 16 14 29 35 29 45 0 11 11 33 25
49 14 17 25 34 25 38 0 5 14 25 30 44 16 19 30 42 30 50 0 9 18 36 40 60 22
24 45 59 51 77 6 18 15 33 20 33 5 0 18 18 29 40 11 22 24 40 29 40 5 0 16 15
25 34 9 19 34 53 56 76 22 23 40 48 40 56 0 9 20 35 45 60 25 24 45 48 45 54
0 5 12 23 28 39 15 17 47 54 72 83 63 74 235 242 287 281 25 17 72 53 105 80
34 26 69 47 79 47 10 0 25 8 35 17 19 20 114 60 162 69 57 11 115 -13 158 -64
37 -45 39 -50 39 -118 -1 -61 -5 -78 -28 -113 -15 -22 -27 -46 -27 -52 0 -18
-70 -129 -81 -129 -6 0 -16 -15 -24 -34 -12 -29 -57 -76 -82 -88 -4 -1 -15
-16 -23 -33 -9 -16 -31 -40 -50 -53 -19 -13 -37 -29 -39 -35 -6 -20 -54 -67
-68 -67 -7 0 -24 -19 -39 -41 -14 -23 -39 -46 -55 -52 -16 -6 -29 -15 -29 -19
0 -13 -61 -78 -74 -78 -6 0 -30 -23 -54 -50 -24 -28 -47 -50 -51 -50 -5 0 -42
-33 -83 -72 -42 -40 -93 -90 -114 -110 -178 -168 -223 -258 -189 -374 16 -56
65 -152 95 -186 8 -10 26 -32 40 -49 39 -48 157 -175 200 -216 5 -4 23 -25 40
-45 17 -20 39 -40 49 -43 10 -3 23 -16 30 -29 7 -13 33 -36 57 -51 24 -15 44
-31 44 -36 0 -4 37 -35 83 -69 45 -33 94 -72 110 -85 15 -14 32 -25 39 -25 6
0 35 -19 65 -42 30 -22 84 -56 120 -74 36 -19 75 -43 85 -54 10 -11 27 -20 37
-20 21 0 167 -66 176 -79 3 -5 31 -15 63 -21 31 -7 73 -20 92 -30 19 -9 50
-20 69 -24 19 -3 42 -12 50 -20 9 -8 62 -19 126 -26 61 -6 129 -15 153 -21 75
-16 273 -22 377 -10 282 31 358 43 378 56 12 8 48 21 81 29 32 9 63 20 70 25
6 5 29 12 51 16 22 4 56 16 75 26 96 48 137 67 160 74 14 4 57 27 96 51 40 24
76 44 81 44 5 0 37 19 72 43 86 57 103 67 122 67 9 0 24 11 33 25 9 14 41 39
70 55 29 17 61 39 71 50 10 11 24 20 32 20 7 0 13 4 13 9 0 5 21 24 48 41 26
18 57 45 70 60 12 16 35 31 50 35 15 3 36 20 47 38 11 18 36 40 55 49 19 10
37 26 41 36 4 10 26 31 50 47 24 17 46 34 48 40 2 5 20 23 40 40 57 48 461
453 461 462 1 11 43 58 64 70 9 5 24 25 34 44 9 18 31 43 49 54 18 11 37 33
42 49 6 16 31 48 56 73 25 24 45 49 45 55 0 7 9 21 20 33 34 34 90 109 90 121
0 7 17 30 39 52 21 22 44 56 51 76 6 20 15 36 20 36 10 0 73 92 89 130 16 37
34 62 57 82 12 9 24 31 27 47 6 27 33 75 75 131 10 14 24 44 30 66 7 23 18 44
26 47 7 3 17 18 20 34 4 15 15 37 25 48 10 11 23 39 29 61 7 23 19 47 27 54 8
7 15 20 15 30 0 9 11 34 25 54 14 20 25 45 25 54 0 9 12 40 25 67 14 28 25 56
25 63 0 6 8 20 18 30 10 10 25 45 34 78 20 73 59 176 75 195 6 8 16 41 22 74
13 71 70 245 81 245 4 0 12 39 19 87 7 48 17 96 24 107 6 12 12 32 14 46 4 32
33 142 42 155 3 6 13 71 22 145 9 74 27 198 39 274 21 123 22 147 11 200 -7
34 -17 63 -22 64 -5 2 -18 21 -29 43 -30 57 -121 101 -212 101 -41 0 -75 -6
-90 -15 -12 -8 -38 -18 -55 -22 -18 -4 -33 -10 -33 -15 0 -4 -21 -34 -46 -65
l-46 -57 -9 -116 c-5 -64 -15 -146 -23 -182 -8 -36 -19 -96 -26 -135 -6 -38
-17 -83 -25 -100 -7 -16 -18 -67 -24 -112 -11 -86 -58 -258 -85 -308 -9 -16
-16 -44 -16 -62 0 -17 -13 -65 -30 -106 -16 -42 -30 -80 -30 -85 0 -5 -6 -15
-14 -21 -8 -6 -17 -33 -21 -58 -4 -26 -26 -88 -50 -137 -23 -50 -48 -108 -55
-130 -7 -21 -29 -68 -50 -105 -20 -36 -45 -89 -54 -118 -9 -28 -24 -57 -32
-63 -7 -7 -14 -18 -14 -26 0 -7 -7 -19 -15 -27 -8 -8 -25 -39 -38 -68 -14 -30
-38 -71 -56 -93 -17 -21 -31 -47 -31 -57 0 -10 -6 -24 -14 -31 -7 -8 -21 -30
-31 -48 -10 -19 -26 -41 -36 -48 -9 -6 -20 -25 -24 -41 -3 -15 -21 -44 -39
-64 -18 -20 -50 -66 -72 -103 -21 -37 -49 -73 -61 -82 -13 -8 -23 -19 -23 -25
0 -19 -51 -86 -70 -92 -10 -3 -21 -17 -24 -30 -4 -14 -27 -46 -51 -72 -25 -26
-45 -50 -45 -54 0 -5 -21 -30 -47 -57 -27 -26 -69 -73 -94 -103 -115 -135
-497 -501 -617 -591 -23 -18 -44 -40 -47 -49 -3 -9 -17 -20 -31 -23 -14 -4
-44 -27 -67 -51 -22 -25 -46 -45 -52 -45 -7 0 -34 -20 -61 -45 -26 -25 -52
-45 -57 -45 -12 0 -90 -56 -121 -86 -11 -12 -36 -25 -54 -29 -18 -3 -37 -15
-42 -25 -6 -11 -41 -34 -78 -53 -37 -18 -92 -49 -122 -68 -30 -19 -81 -43
-112 -53 -32 -10 -68 -26 -82 -37 -13 -10 -30 -19 -38 -19 -7 0 -29 -8 -48
-18 -19 -11 -58 -22 -85 -25 -28 -3 -64 -13 -80 -22 -55 -29 -270 -63 -380
-60 -108 3 -273 35 -309 59 -13 8 -49 19 -80 25 -32 6 -69 20 -83 31 -14 11
-32 20 -39 20 -7 0 -25 11 -40 25 -15 14 -35 25 -45 25 -10 0 -39 19 -66 41
-26 23 -59 47 -73 53 -14 6 -34 19 -45 29 -23 21 -89 72 -139 107 -20 14 -38
33 -41 42 -3 9 -16 20 -28 24 -28 8 -77 54 -77 71 0 7 -11 18 -24 23 -27 10
-65 46 -74 72 -4 9 -23 27 -42 40 -19 13 -42 37 -50 53 -8 17 -32 48 -52 69
-20 21 -44 53 -52 71 -9 18 -22 38 -31 45 -8 7 -15 17 -15 23 0 6 -8 19 -17
30 -17 19 -16 21 26 58 24 21 57 43 75 47 17 5 46 23 65 41 18 17 52 40 75 51
47 23 109 67 114 81 2 5 19 16 37 23 18 8 47 30 65 50 18 19 42 39 54 42 11 4
42 28 68 53 25 25 71 69 101 96 30 28 61 56 68 64 8 8 35 35 62 61 26 27 47
52 47 56 1 13 44 60 67 73 12 6 24 22 27 37 4 15 25 47 46 73 22 25 56 78 76
116 20 39 42 77 50 86 8 9 21 38 28 65 8 27 22 72 31 99 47 145 50 162 50 260
0 81 -4 109 -21 145 -12 25 -25 55 -28 67 -4 12 -29 44 -57 73 -41 42 -62 55
-124 75 -240 79 -526 46 -775 -88 -14 -8 -51 -27 -84 -43 -32 -16 -65 -38 -72
-50 -8 -11 -32 -26 -54 -33 -22 -6 -40 -16 -40 -21 0 -15 -53 -61 -82 -72 -15
-5 -30 -18 -33 -28 -3 -10 -18 -26 -32 -36 -23 -14 -153 -145 -309 -309 -21
-22 -51 -59 -67 -82 -15 -23 -37 -45 -47 -48 -10 -3 -24 -20 -29 -38 -6 -18
-28 -50 -49 -72 -20 -22 -55 -67 -77 -99 -22 -33 -50 -70 -62 -82 -13 -13 -23
-30 -23 -38 0 -8 -23 -38 -51 -66 -43 -43 -54 -50 -64 -38 -10 9 -16 106 -24
368 -6 195 -18 490 -27 655 -12 236 -14 461 -11 1050 2 413 9 829 15 925 6 96
16 285 22 420 6 135 15 265 20 290 5 25 14 160 20 300 5 140 17 311 25 380 9
69 20 163 26 210 5 47 17 111 25 144 8 32 22 117 30 188 7 71 18 137 23 146 5
10 15 47 21 82 6 36 20 85 31 109 10 24 19 59 19 77 0 18 11 68 25 111 14 43
25 84 25 91 0 8 8 26 18 40 11 15 25 56 32 92 7 36 20 79 30 95 9 17 20 44 24
60 4 17 16 38 27 48 10 10 19 30 19 46 0 16 8 39 19 52 10 13 22 35 26 49 4
14 18 38 31 53 13 16 24 36 24 45 0 17 30 64 83 133 15 20 27 39 27 43 0 15
53 76 66 76 7 0 16 11 20 25 7 28 57 75 80 75 8 0 19 10 25 23 12 26 97 73
149 83 19 3 40 10 45 15 16 12 92 14 107 2 7 -6 33 -13 58 -17 59 -9 130 -45
143 -73 5 -12 22 -27 38 -33 18 -8 36 -29 50 -57 12 -24 28 -47 35 -50 8 -3
18 -22 24 -43 6 -21 17 -43 25 -50 8 -7 15 -26 15 -42 0 -16 9 -56 20 -89 50
-147 75 -423 59 -656 -14 -221 -38 -436 -54 -488 -7 -26 -17 -92 -20 -148 -4
-56 -16 -138 -26 -182 -10 -44 -19 -92 -19 -107 0 -15 -11 -60 -24 -100 -13
-40 -27 -104 -31 -143 -6 -71 -55 -279 -80 -338 -7 -18 -16 -61 -20 -97 -4
-36 -13 -76 -20 -90 -6 -14 -17 -52 -24 -85 -7 -33 -21 -73 -31 -90 -10 -16
-20 -58 -23 -91 -5 -59 -21 -117 -73 -269 -13 -38 -24 -79 -24 -91 0 -25 -62
-218 -84 -259 -9 -16 -16 -44 -16 -60 0 -31 -64 -230 -80 -249 -4 -6 -13 -40
-20 -76 -6 -36 -19 -79 -29 -95 -10 -17 -21 -44 -25 -60 -4 -17 -14 -37 -21
-45 -7 -8 -18 -42 -24 -74 -10 -56 -45 -156 -76 -221 -8 -16 -19 -52 -25 -80
-6 -27 -31 -90 -54 -140 -24 -49 -46 -107 -49 -129 -4 -21 -13 -46 -20 -55 -8
-9 -20 -33 -26 -53 -7 -20 -18 -41 -25 -48 -8 -6 -17 -30 -20 -53 -4 -23 -27
-82 -51 -131 -25 -49 -48 -107 -52 -130 -3 -22 -10 -44 -16 -47 -5 -4 -7 -15
-4 -25 4 -17 6 -17 12 4 4 12 14 22 21 22 8 0 20 11 26 25 6 14 21 31 34 40
12 8 25 27 29 43 3 16 17 40 31 53 14 13 35 39 46 59 48 81 90 140 98 140 5 0
13 15 18 33 5 18 28 58 51 88 22 29 41 65 41 79 3 119 19 240 38 275 29 57 80
102 138 123 84 30 112 52 131 102 9 25 31 65 48 90 18 25 40 68 49 95 9 28 32
76 52 107 19 32 42 80 50 108 8 28 32 84 53 123 21 40 41 90 45 112 4 22 13
47 20 55 7 8 18 34 24 56 7 23 19 45 27 48 8 3 15 18 15 33 0 15 12 60 26 98
13 39 29 86 35 105 6 19 17 42 24 50 7 8 18 44 25 80 6 35 20 81 31 102 10 20
19 49 19 63 0 14 8 33 18 43 11 11 21 41 25 71 7 55 36 157 73 256 12 33 27
95 33 138 6 42 17 92 25 111 7 18 17 53 21 77 4 24 16 61 26 81 11 21 19 54
19 75 1 21 7 67 14 103 8 36 23 114 36 175 12 60 26 117 30 126 5 9 16 92 24
185 8 93 20 192 25 220 38 199 40 814 2 994 -11 52 -23 124 -26 160 -5 40 -23
101 -47 160 -22 52 -45 113 -51 135 -6 22 -26 60 -44 85 -18 25 -41 62 -50 83
-9 20 -20 37 -24 37 -12 0 -68 62 -75 82 -3 9 -13 20 -23 23 -10 3 -40 26 -66
50 -26 25 -55 45 -65 45 -9 0 -28 8 -41 18 -13 11 -39 24 -58 31 -19 6 -43 19
-54 29 -16 14 -43 17 -186 19 -91 1 -178 -2 -193 -6z"/>
<path d="M19275 15670 c-42 -11 -116 -46 -141 -67 -19 -17 -34 -41 -65 -103
-18 -35 -16 -172 4 -255 9 -38 21 -122 27 -185 6 -63 20 -144 30 -180 29 -99
68 -269 75 -330 4 -30 15 -68 25 -85 10 -16 21 -46 25 -65 4 -19 13 -46 20
-60 8 -14 19 -54 25 -88 6 -35 20 -78 31 -95 10 -18 19 -39 19 -47 0 -8 7 -28
16 -45 8 -16 22 -53 29 -81 7 -28 33 -94 58 -145 24 -52 47 -111 51 -131 4
-21 11 -38 16 -38 13 0 80 -145 80 -174 0 -15 8 -30 19 -35 10 -6 26 -27 35
-48 9 -21 23 -49 31 -63 8 -14 15 -32 15 -41 0 -8 11 -26 24 -38 13 -12 38
-55 56 -94 18 -40 47 -87 63 -106 16 -19 36 -51 44 -70 9 -20 26 -49 39 -64
13 -16 24 -34 24 -40 0 -7 8 -17 19 -24 10 -6 22 -24 26 -40 3 -15 26 -49 51
-75 24 -26 44 -54 44 -63 0 -8 9 -23 21 -33 11 -9 40 -47 64 -83 24 -37 60
-82 80 -100 19 -18 35 -39 35 -47 0 -7 23 -34 50 -61 28 -27 50 -56 50 -64 0
-9 10 -22 23 -28 31 -16 60 -49 75 -81 6 -16 18 -28 25 -28 7 0 28 -19 45 -42
18 -24 48 -56 67 -71 19 -15 42 -41 50 -57 9 -17 21 -30 29 -30 7 0 35 -24 62
-53 27 -29 61 -62 75 -73 14 -10 31 -29 38 -42 6 -12 17 -22 24 -22 15 0 87
-65 87 -78 0 -5 14 -15 31 -22 17 -7 44 -30 61 -51 17 -21 40 -42 52 -45 12
-4 35 -21 52 -39 18 -17 60 -51 95 -75 35 -23 74 -53 87 -66 13 -13 29 -24 36
-24 8 0 36 -20 63 -44 27 -25 62 -48 77 -52 14 -3 31 -15 37 -25 5 -11 16 -19
23 -19 7 0 30 -13 51 -30 21 -16 43 -30 50 -30 7 0 35 -17 62 -38 26 -21 83
-55 125 -76 42 -21 79 -44 82 -51 3 -8 24 -19 48 -25 24 -7 50 -18 58 -25 8
-7 25 -16 38 -20 12 -3 34 -17 49 -31 15 -13 38 -24 54 -24 16 0 36 -8 46 -19
10 -10 33 -22 50 -26 18 -3 39 -15 46 -25 7 -10 31 -21 52 -25 22 -4 82 -27
133 -51 50 -25 116 -50 145 -56 28 -6 59 -17 67 -24 8 -7 34 -17 57 -23 23 -7
46 -17 50 -24 4 -7 40 -18 80 -25 39 -6 87 -18 105 -25 70 -29 165 -60 213
-69 134 -25 227 -48 320 -78 33 -10 101 -22 150 -25 50 -4 106 -10 125 -15 19
-5 148 -24 285 -42 239 -31 265 -32 590 -32 208 -1 375 4 430 11 50 7 160 19
245 28 85 9 196 22 245 30 50 8 141 17 203 20 61 4 112 10 112 14 0 14 -129
71 -175 77 -55 7 -120 30 -209 75 -33 16 -66 29 -74 29 -14 0 -121 57 -132 70
-3 3 -31 19 -63 34 -32 16 -72 41 -88 57 -16 16 -36 29 -44 29 -7 0 -28 12
-46 28 l-33 27 -280 7 c-155 4 -303 12 -331 18 -27 5 -132 14 -233 20 -183 10
-409 42 -552 79 -41 11 -109 24 -151 30 -41 6 -88 17 -105 25 -16 9 -40 16
-54 16 -14 0 -44 9 -65 21 -22 11 -67 24 -101 29 -33 5 -74 16 -90 25 -16 8
-37 15 -46 15 -9 0 -39 11 -66 25 -27 13 -73 30 -103 36 -30 6 -61 17 -69 24
-8 7 -34 18 -56 24 -23 6 -44 18 -47 25 -3 8 -26 18 -52 21 -25 4 -48 11 -50
15 -3 5 -22 14 -43 21 -20 7 -51 23 -68 36 -17 12 -37 23 -45 23 -21 0 -115
46 -153 75 -18 14 -36 25 -40 25 -20 0 -138 65 -146 80 -5 10 -25 21 -43 24
-19 4 -42 15 -52 26 -10 11 -24 20 -31 20 -7 0 -29 14 -47 30 -19 17 -41 30
-49 30 -8 0 -38 20 -67 45 -29 25 -59 45 -66 45 -7 0 -24 9 -37 20 -53 45
-109 86 -146 109 -22 13 -45 34 -50 46 -6 13 -23 26 -41 30 -17 4 -41 21 -56
41 -14 19 -39 41 -56 49 -16 9 -48 36 -70 60 -23 25 -46 45 -51 45 -6 0 -104
96 -219 213 -284 290 -292 298 -305 328 -7 15 -28 39 -47 54 -20 14 -41 42
-47 60 -6 19 -19 37 -29 40 -9 3 -28 23 -42 46 -23 39 -67 98 -109 148 -11 13
-20 30 -20 37 0 7 -20 36 -45 65 -25 29 -45 58 -45 65 0 6 -13 28 -30 49 -16
21 -30 42 -30 47 0 6 -11 23 -25 40 -14 16 -25 41 -25 54 0 14 -7 27 -15 30
-17 7 -85 123 -85 146 0 8 -13 32 -29 51 -16 20 -38 63 -51 94 -12 32 -28 69
-36 83 -40 69 -72 139 -79 170 -4 19 -16 47 -26 61 -10 14 -21 38 -25 55 -4
16 -13 36 -20 45 -8 9 -19 41 -25 73 -5 31 -18 71 -28 89 -11 18 -24 50 -31
72 -7 22 -16 45 -21 50 -4 6 -13 40 -18 77 -6 36 -18 83 -27 103 -31 76 -66
212 -75 300 -6 50 -16 99 -24 111 -7 12 -19 59 -25 105 -6 46 -15 94 -21 107
-5 13 -14 80 -21 149 l-11 125 -56 64 c-35 41 -62 64 -76 64 -11 0 -29 6 -40
14 -25 17 -101 26 -140 16z"/>
<path d="M23385 8839 c-49 -4 -128 -14 -174 -23 -46 -9 -98 -16 -116 -16 -18
0 -38 -7 -45 -14 -6 -8 -28 -20 -48 -27 -20 -6 -44 -17 -52 -24 -8 -7 -31 -17
-51 -23 -20 -5 -45 -17 -55 -27 -29 -25 -85 -62 -120 -78 -17 -8 -44 -30 -60
-49 -16 -20 -44 -43 -61 -52 -18 -9 -33 -23 -33 -31 0 -9 -22 -37 -49 -63 -27
-26 -52 -57 -55 -68 -4 -12 -15 -29 -26 -39 -11 -10 -20 -24 -20 -31 0 -7 -11
-25 -24 -41 -14 -16 -28 -43 -32 -59 -4 -16 -15 -40 -26 -53 -10 -13 -18 -31
-18 -41 0 -10 -9 -29 -20 -43 -14 -17 -25 -58 -35 -124 -8 -54 -20 -120 -26
-148 -15 -65 -15 -316 0 -380 6 -27 18 -95 27 -149 10 -62 22 -109 34 -123 10
-13 21 -37 25 -53 3 -16 13 -34 20 -40 8 -7 18 -28 21 -49 4 -20 16 -45 28
-57 19 -18 35 -42 73 -110 7 -12 30 -39 51 -60 21 -22 46 -52 55 -67 10 -15
34 -35 52 -44 19 -9 35 -20 35 -24 0 -10 63 -69 73 -69 16 0 125 -72 130 -85
3 -7 25 -15 48 -19 24 -4 49 -12 56 -18 7 -6 56 -26 108 -44 80 -27 118 -34
237 -43 223 -15 487 6 542 44 11 8 27 15 36 15 8 0 31 9 51 19 20 11 53 23 73
26 20 4 36 11 36 16 0 5 19 18 43 30 23 12 45 27 50 35 4 7 20 15 37 19 17 4
42 22 60 44 16 21 43 44 59 51 17 7 39 28 51 46 11 19 33 43 50 52 16 9 34 29
39 45 6 15 28 49 49 75 21 26 45 63 52 82 8 19 31 63 51 97 22 35 42 85 48
117 6 31 16 66 22 79 7 12 18 56 25 97 7 41 20 113 29 160 10 51 14 107 11
140 -9 86 -47 282 -62 317 -7 17 -18 60 -24 95 -7 34 -18 70 -26 79 -21 24
-84 151 -84 171 0 9 -8 19 -18 22 -10 4 -29 24 -43 46 -32 54 -133 163 -181
196 -21 15 -38 32 -38 39 0 7 -14 18 -31 24 -17 6 -52 29 -79 51 -26 22 -53
40 -60 40 -7 0 -58 22 -114 49 -58 28 -122 52 -151 55 -27 4 -86 13 -130 21
-100 18 -185 22 -300 14z m210 -239 c68 -11 192 -47 218 -64 12 -8 41 -19 64
-25 23 -6 64 -29 92 -51 28 -22 55 -40 61 -40 17 0 220 -207 220 -224 0 -8 18
-37 39 -64 24 -29 47 -74 57 -108 9 -33 24 -75 34 -94 62 -120 79 -401 36
-586 -13 -55 -30 -112 -39 -125 -8 -13 -21 -44 -27 -69 -15 -58 -36 -97 -71
-138 -16 -18 -29 -39 -29 -46 0 -15 -76 -103 -130 -150 -19 -17 -46 -43 -60
-57 -14 -14 -42 -31 -62 -38 -20 -7 -38 -18 -41 -25 -8 -20 -96 -62 -146 -71
-25 -4 -50 -13 -57 -20 -14 -14 -102 -32 -211 -44 -117 -12 -304 15 -379 54
-16 8 -41 15 -56 15 -16 0 -37 9 -47 19 -10 10 -28 22 -40 26 -12 3 -33 17
-49 29 -15 13 -37 26 -49 30 -12 4 -36 24 -54 44 -18 20 -45 42 -60 49 -15 6
-35 26 -45 44 -9 18 -32 47 -50 64 -19 18 -41 50 -50 71 -9 22 -20 41 -24 44
-19 13 -72 128 -81 178 -6 30 -17 65 -24 76 -8 12 -22 77 -30 146 -14 107 -15
142 -5 240 8 69 22 140 36 179 13 35 24 73 24 86 0 26 56 141 82 167 10 10 18
27 18 38 0 11 18 39 41 62 22 24 47 55 55 71 8 15 18 27 22 27 4 0 31 23 59
50 29 28 58 50 64 50 6 0 31 17 55 39 25 22 64 44 91 51 27 8 68 24 92 37 24
13 55 23 68 23 13 0 34 5 46 12 45 25 239 35 342 18z"/>
<path d="M34475 8839 c-44 -4 -120 -14 -170 -23 -49 -9 -104 -16 -121 -16 -18
0 -38 -8 -48 -19 -9 -10 -31 -21 -47 -25 -17 -3 -42 -15 -56 -26 -14 -11 -36
-20 -49 -20 -13 0 -33 -9 -45 -21 -11 -11 -36 -27 -55 -35 -19 -8 -34 -18 -34
-23 0 -5 -17 -16 -38 -24 -21 -9 -50 -31 -65 -50 -14 -19 -39 -40 -56 -46 -17
-7 -35 -26 -42 -43 -7 -16 -29 -41 -49 -54 -21 -14 -41 -38 -49 -59 -7 -19
-21 -40 -32 -45 -10 -6 -19 -17 -19 -25 0 -8 -11 -26 -25 -41 -14 -15 -25 -33
-25 -41 0 -8 -20 -53 -45 -101 -30 -57 -49 -109 -56 -152 -5 -36 -18 -90 -27
-120 -25 -80 -25 -444 0 -510 9 -25 22 -79 28 -120 7 -41 18 -82 24 -90 19
-24 76 -139 76 -154 0 -7 11 -26 25 -42 14 -16 28 -38 31 -49 4 -11 15 -26 25
-33 11 -7 19 -19 19 -27 0 -14 64 -85 78 -85 5 0 16 -16 25 -35 9 -20 29 -41
44 -48 15 -6 45 -29 66 -49 21 -20 71 -55 112 -77 40 -22 75 -46 77 -52 2 -7
24 -18 49 -24 24 -7 69 -22 99 -34 177 -70 149 -66 460 -66 303 0 308 1 445
55 44 17 95 36 113 41 33 10 117 62 127 79 3 5 24 14 45 20 22 6 40 15 40 20
0 6 26 29 58 53 70 52 129 111 173 171 18 25 36 46 41 46 5 0 16 16 24 36 8
20 33 58 55 86 21 27 39 57 39 65 0 14 43 122 75 188 26 54 39 176 39 380 1
288 -14 367 -95 527 -10 20 -19 48 -19 62 0 14 -10 35 -23 48 -26 25 -77 103
-77 116 0 5 -19 29 -42 53 -24 25 -54 61 -68 82 -14 20 -37 42 -52 48 -15 6
-30 19 -33 30 -3 10 -15 21 -26 24 -10 4 -19 11 -19 16 0 5 -8 13 -17 17 -43
18 -132 74 -137 87 -3 8 -22 17 -43 21 -21 4 -49 15 -62 25 -13 11 -31 19 -40
19 -10 0 -32 11 -51 25 -19 14 -45 25 -59 25 -14 0 -81 9 -150 19 -148 23
-236 28 -346 20z m263 -395 c24 -9 72 -21 105 -28 53 -11 110 -39 153 -75 6
-5 29 -18 50 -29 43 -23 84 -58 84 -73 0 -5 11 -15 25 -21 14 -6 39 -32 55
-57 17 -25 37 -55 45 -66 43 -55 75 -112 75 -134 0 -13 9 -38 19 -55 10 -17
29 -71 42 -121 43 -169 24 -410 -41 -533 -11 -20 -20 -46 -20 -57 0 -18 -41
-89 -72 -125 -8 -8 -20 -28 -28 -44 -19 -38 -110 -130 -159 -161 -22 -13 -42
-29 -46 -35 -3 -5 -13 -10 -21 -10 -9 0 -30 -11 -47 -24 -56 -43 -131 -65
-253 -76 -208 -18 -391 4 -480 59 -27 17 -67 38 -89 49 -22 10 -59 36 -82 58
-23 21 -54 47 -68 57 -15 11 -32 31 -38 45 -6 15 -23 39 -37 53 -33 34 -65 89
-74 125 -4 16 -15 37 -23 46 -24 27 -53 114 -65 193 -5 39 -8 144 -5 235 6
175 19 234 71 324 13 23 29 58 36 79 6 21 27 52 45 70 18 18 39 46 48 63 9 17
27 39 41 48 14 9 40 32 57 51 17 18 45 37 61 40 16 4 32 13 35 21 7 19 105 70
150 79 21 3 58 13 83 21 105 36 275 39 368 8z"/>
<path d="M16603 8817 c-84 -14 -149 -29 -160 -38 -10 -9 -52 -32 -94 -52 -42
-21 -92 -54 -112 -75 -20 -20 -48 -45 -62 -56 -15 -10 -33 -34 -41 -52 -8 -19
-19 -34 -25 -34 -5 0 -15 -12 -22 -27 -7 -16 -19 -39 -29 -53 -37 -56 -52
-283 -29 -433 12 -74 33 -122 75 -169 8 -9 22 -31 31 -48 8 -16 33 -41 54 -55
22 -13 42 -29 46 -35 3 -5 21 -10 40 -10 27 0 43 9 74 40 22 22 47 40 56 40 9
0 69 -51 133 -113 69 -67 138 -124 167 -139 53 -27 173 -68 199 -68 22 0 28
50 19 165 l-8 99 -60 21 c-33 11 -85 26 -115 34 -30 7 -71 22 -90 32 -20 9
-54 21 -75 25 -22 4 -51 15 -64 25 -13 11 -30 19 -37 19 -7 0 -26 11 -41 25
-15 14 -45 39 -65 56 -21 17 -38 36 -38 43 0 6 -12 34 -27 61 -25 45 -28 60
-28 150 0 89 3 104 23 129 12 16 22 37 22 48 0 25 124 148 150 148 11 0 29 9
40 20 91 91 475 92 655 1 22 -12 58 -25 80 -31 22 -5 64 -28 93 -50 29 -22 56
-40 60 -40 5 0 26 -13 48 -30 21 -16 44 -29 49 -30 17 0 115 97 115 114 0 8
10 24 22 35 18 18 19 23 7 37 -7 9 -18 25 -24 37 -5 11 -23 24 -39 28 -16 5
-38 16 -50 26 -38 33 -81 60 -106 67 -14 4 -50 19 -80 33 -30 14 -73 34 -95
44 -43 20 -241 46 -400 53 -74 4 -137 -1 -242 -17z"/>
<path d="M28832 8818 c-119 -18 -142 -24 -230 -69 -103 -53 -143 -81 -201
-143 -90 -97 -101 -110 -101 -125 0 -9 -11 -33 -25 -53 -14 -20 -25 -43 -25
-50 0 -7 -9 -30 -20 -51 -18 -33 -20 -56 -20 -216 0 -146 3 -181 15 -191 8 -7
20 -31 26 -54 6 -22 20 -49 30 -59 10 -10 19 -26 19 -36 0 -22 119 -146 150
-156 12 -4 45 -24 73 -46 31 -23 71 -42 99 -49 27 -5 59 -16 71 -24 12 -7 37
-16 56 -20 19 -3 42 -13 52 -22 9 -8 57 -21 105 -29 49 -7 118 -23 154 -34 36
-11 72 -21 80 -21 8 0 31 -8 50 -18 19 -11 54 -22 78 -26 86 -13 216 -95 274
-171 37 -48 38 -53 38 -133 0 -95 -19 -143 -79 -203 -59 -58 -112 -87 -187
-98 -38 -6 -92 -16 -120 -23 -42 -9 -68 -8 -140 5 -49 9 -120 19 -159 22 -38
4 -89 16 -112 26 -23 10 -46 19 -52 19 -5 0 -22 11 -38 24 -15 13 -43 27 -61
31 -18 4 -36 13 -39 20 -2 8 -20 19 -38 25 -18 6 -41 22 -49 36 -9 13 -25 24
-35 24 -10 0 -34 17 -53 38 l-35 38 -36 -23 c-20 -13 -37 -27 -37 -31 0 -4
-21 -30 -46 -57 -25 -28 -56 -66 -69 -85 -12 -19 -37 -48 -54 -64 l-30 -29 39
-38 c21 -21 52 -45 68 -53 17 -9 47 -31 67 -51 21 -19 53 -37 71 -41 19 -3 40
-14 47 -24 6 -9 28 -22 49 -29 20 -7 38 -18 41 -25 3 -7 24 -16 48 -20 23 -4
54 -13 68 -21 14 -7 55 -21 91 -30 36 -9 85 -23 110 -32 31 -10 106 -16 240
-20 286 -8 373 6 546 88 22 10 50 19 61 19 12 0 24 8 27 18 3 10 21 26 38 37
45 26 168 155 168 176 0 10 5 21 11 24 5 4 26 40 45 81 33 71 35 83 41 209 7
165 -10 313 -38 333 -11 7 -19 18 -19 24 0 40 -132 193 -195 225 -16 9 -38 24
-48 34 -10 11 -28 19 -41 19 -13 0 -34 9 -48 19 -13 11 -42 24 -65 30 -22 6
-43 17 -46 25 -3 8 -29 16 -63 21 -32 4 -80 16 -107 26 -26 10 -57 19 -68 19
-12 0 -35 6 -52 14 -49 22 -95 34 -171 46 -44 7 -101 27 -160 55 -51 25 -96
45 -102 45 -15 0 -74 57 -74 72 0 7 -10 18 -22 23 -20 9 -37 53 -54 135 -3 14
-7 36 -10 49 -3 13 -30 48 -60 77 -45 42 -55 58 -52 80 3 29 16 39 61 49 21 4
33 17 47 48 25 54 38 70 80 96 58 35 129 22 179 -32 42 -46 131 -60 131 -22 0
8 -34 50 -75 94 -76 82 -87 107 -59 135 35 35 59 21 164 -99 131 -149 176
-173 219 -119 26 33 27 90 4 124 -44 65 -148 182 -174 195 -36 19 -73 18 -237
-7z"/>
<path d="M14136 8789 c-14 -17 -26 -36 -26 -43 0 -8 -9 -25 -21 -40 -11 -14
-25 -43 -31 -64 -13 -48 -44 -116 -73 -161 -13 -20 -26 -52 -30 -71 -4 -19
-30 -78 -56 -131 -27 -52 -49 -105 -49 -117 0 -11 -5 -24 -11 -27 -5 -4 -21
-31 -33 -60 -13 -29 -29 -56 -35 -59 -6 -4 -11 -18 -11 -32 0 -14 -11 -46 -25
-72 -14 -26 -25 -52 -25 -58 0 -6 -9 -19 -20 -29 -11 -10 -22 -34 -26 -54 -4
-20 -14 -49 -24 -66 -10 -16 -21 -41 -25 -55 -4 -14 -15 -34 -24 -45 -10 -11
-23 -40 -30 -65 -7 -25 -33 -83 -56 -130 -24 -47 -48 -104 -54 -126 -6 -23
-17 -47 -25 -53 -8 -7 -17 -24 -21 -39 -4 -15 -13 -35 -22 -44 -8 -9 -19 -36
-24 -60 -6 -23 -16 -50 -23 -58 -8 -8 -19 -32 -25 -52 -7 -20 -19 -42 -27 -48
-8 -7 -17 -30 -20 -52 -4 -22 -12 -45 -18 -51 -7 -7 -18 -28 -26 -47 -7 -19
-22 -44 -32 -56 -10 -11 -18 -28 -18 -38 0 -21 -45 -128 -70 -166 -30 -47 -49
-108 -41 -137 l7 -28 107 -3 c104 -3 106 -2 124 24 10 14 26 34 35 44 9 11 20
36 24 57 4 21 15 49 25 62 11 13 19 32 19 42 0 9 11 30 23 46 13 15 27 43 30
61 7 33 51 133 81 182 9 14 20 43 26 65 19 79 -16 75 715 75 605 0 649 -1 661
-17 7 -10 14 -25 14 -34 0 -9 7 -22 15 -29 20 -16 71 -125 80 -170 4 -19 16
-46 26 -59 11 -13 19 -29 19 -36 0 -7 9 -24 20 -37 10 -14 24 -45 29 -69 12
-52 72 -168 100 -193 56 -51 201 49 201 137 0 12 -25 71 -55 132 -30 60 -55
121 -55 136 0 14 -11 36 -24 48 -13 13 -27 38 -30 56 -4 18 -13 38 -20 44 -7
6 -17 30 -20 53 -4 24 -15 47 -26 55 -11 8 -20 20 -20 27 0 7 -11 34 -25 60
-14 26 -25 55 -25 64 0 9 -7 28 -14 42 -32 56 -84 167 -90 192 -3 14 -23 57
-45 95 -21 37 -44 91 -51 118 -8 28 -23 64 -36 80 -12 17 -25 41 -29 55 -4 14
-13 34 -19 45 -7 11 -16 36 -20 55 -3 19 -14 43 -24 55 -22 24 -72 136 -72
160 0 9 -11 30 -25 47 -14 16 -25 38 -25 47 0 10 -8 29 -19 42 -10 13 -21 42
-25 63 -4 22 -16 51 -27 64 -10 14 -19 30 -19 36 0 7 -11 27 -25 46 -14 19
-25 44 -25 57 0 12 -20 60 -44 106 -25 46 -52 109 -61 140 -25 86 -44 97 -175
97 l-108 0 -26 -31z m181 -382 c18 -34 34 -77 38 -95 4 -18 22 -58 41 -90 19
-31 42 -82 51 -112 8 -30 21 -62 28 -70 23 -28 66 -124 76 -171 6 -26 16 -50
24 -52 7 -3 19 -23 25 -44 7 -21 18 -45 25 -53 8 -8 17 -33 21 -55 4 -22 15
-51 25 -64 11 -13 19 -29 19 -36 0 -7 9 -24 20 -38 12 -15 27 -51 35 -82 8
-30 26 -74 41 -96 20 -32 24 -49 20 -74 -4 -18 -14 -36 -22 -39 -9 -3 -244 -6
-524 -6 -449 0 -510 2 -524 16 -20 19 -21 70 -2 77 7 3 16 24 20 47 4 24 16
54 26 68 11 13 20 32 20 42 0 9 11 29 25 44 14 15 25 39 25 53 0 14 8 40 19
57 10 17 22 42 26 55 4 12 17 38 30 57 12 18 26 50 30 70 3 21 24 68 45 106
22 38 44 87 50 109 6 22 30 77 54 122 23 46 46 98 49 117 4 18 13 41 21 49 7
9 19 33 26 54 6 20 16 37 21 37 5 0 15 16 23 35 20 46 35 38 73 -38z"/>
<path d="M29254 8806 c-12 -9 0 -28 76 -119 68 -82 90 -115 90 -137 0 -32 -23
-50 -63 -50 -16 0 -28 -8 -35 -25 -19 -42 -14 -52 33 -64 25 -6 45 -15 45 -20
0 -4 18 -13 40 -20 22 -6 44 -20 50 -30 6 -12 26 -22 50 -26 24 -4 44 -14 50
-26 6 -10 17 -19 24 -19 7 0 21 -9 31 -20 27 -30 52 -24 81 20 15 22 31 40 36
40 5 0 16 17 24 38 9 20 33 55 54 77 20 22 40 52 44 68 3 15 11 27 16 27 24 0
-37 71 -70 81 -19 6 -40 17 -45 24 -6 6 -29 22 -52 33 -23 12 -44 26 -48 32
-3 5 -24 10 -46 10 -49 0 -50 -14 -4 -72 69 -86 87 -116 80 -137 -8 -25 -38
-35 -64 -21 -12 6 -67 68 -123 138 -146 182 -158 194 -213 202 -28 4 -51 3
-61 -4z"/>
<path d="M11128 8803 c-23 -3 -28 -10 -28 -31 0 -15 -1 -557 -1 -1205 0 -1128
0 -1179 18 -1193 10 -8 28 -17 41 -20 28 -8 199 0 208 9 4 4 8 241 10 528 1
286 5 523 9 527 4 4 300 9 658 12 l652 5 5 104 c5 95 3 105 -15 117 -16 12
-131 14 -656 14 -593 0 -637 1 -643 17 -10 25 -8 855 2 865 4 4 336 9 737 10
l730 3 3 114 c2 85 -1 116 -10 122 -13 8 -1669 10 -1720 2z"/>
<path d="M18453 8802 l-33 -3 -2 -1192 c-2 -656 0 -1202 4 -1213 9 -29 57 -44
136 -44 75 0 132 17 132 40 0 8 2 247 3 531 2 420 5 519 16 532 12 16 73 17
691 17 l679 0 21 -27 c20 -26 20 -33 20 -531 -1 -614 -14 -563 140 -559 55 2
105 8 111 14 10 10 14 2417 3 2434 -9 15 -235 4 -245 -12 -5 -8 -9 -249 -9
-536 l0 -523 -22 -5 c-13 -3 -333 -4 -713 -3 l-690 3 -2 534 c-2 294 -5 536
-7 539 -6 5 -189 9 -233 4z"/>
<path d="M21246 8797 c-15 -11 -16 -113 -16 -1206 0 -1061 1 -1196 15 -1217
15 -23 21 -24 115 -24 88 0 100 2 110 19 7 13 10 413 10 1225 0 663 -1 1206
-2 1207 -2 1 -51 3 -109 5 -73 2 -111 -1 -123 -9z"/>
<path d="M25443 8802 c-10 -6 -13 -265 -13 -1208 0 -659 3 -1209 6 -1221 6
-22 11 -23 114 -23 105 0 107 0 118 25 9 19 12 277 12 980 0 1079 -4 1027 70
937 22 -26 48 -56 60 -68 11 -12 20 -26 20 -32 0 -6 23 -34 50 -62 28 -28 50
-58 50 -66 0 -9 19 -32 41 -52 23 -20 48 -52 55 -69 8 -18 18 -33 23 -33 5 0
32 -30 59 -67 27 -38 66 -86 86 -107 20 -22 36 -45 36 -51 0 -6 23 -34 50 -62
28 -28 50 -61 50 -72 0 -12 5 -21 11 -21 12 0 79 -71 79 -85 0 -6 13 -23 29
-38 17 -15 33 -36 36 -47 4 -11 10 -20 15 -20 5 0 16 -13 24 -28 8 -16 33 -47
55 -69 23 -22 41 -46 41 -52 0 -6 23 -36 50 -66 28 -30 50 -61 50 -69 0 -8 11
-21 24 -29 13 -9 36 -35 52 -59 40 -60 121 -161 171 -215 23 -24 47 -60 53
-78 6 -18 19 -35 29 -38 10 -2 33 -27 51 -56 18 -28 36 -51 40 -51 4 0 27 -28
50 -62 72 -104 92 -117 181 -118 70 0 77 2 101 28 l25 27 -1 1187 c-1 946 -4
1190 -14 1200 -14 14 -213 19 -244 6 -17 -7 -18 -62 -18 -957 0 -621 -3 -952
-10 -956 -16 -10 -89 57 -95 87 -4 15 -22 38 -41 53 -19 14 -43 44 -54 66 -11
21 -24 39 -28 39 -7 0 -68 77 -122 154 -8 12 -25 32 -37 44 -13 12 -23 29 -23
37 0 8 -18 28 -40 46 -22 18 -44 46 -50 63 -5 17 -26 44 -45 59 -19 15 -42 42
-51 60 -9 18 -22 35 -28 39 -7 4 -30 33 -51 65 -22 32 -57 76 -79 98 -21 21
-43 51 -48 66 -5 15 -25 40 -45 55 -19 15 -42 42 -49 61 -8 19 -21 36 -28 39
-8 3 -27 24 -42 47 -29 43 -80 107 -114 142 -11 12 -20 25 -20 31 0 6 -20 31
-44 56 -24 26 -47 57 -52 70 -4 13 -27 40 -50 61 -24 21 -44 47 -44 58 0 11
-7 22 -16 26 -8 3 -44 44 -80 92 -63 85 -76 102 -133 171 l-29 35 -109 3 c-59
1 -114 -1 -120 -6z"/>
<path d="M30648 8798 c-17 -12 -18 -83 -18 -1206 0 -1153 1 -1228 28 -1234 4
0 85 -2 179 -3 l173 -2 15 24 c15 22 16 80 16 496 l-1 472 22 28 23 28 555 -1
c553 0 554 0 577 -22 l23 -21 0 -474 c0 -402 2 -478 15 -503 l15 -29 181 3
c143 2 183 5 190 17 5 8 9 522 9 1220 l0 1206 -40 7 c-62 10 -332 6 -352 -5
-18 -9 -18 -36 -18 -492 l1 -482 -28 -22 -28 -23 -551 0 -551 0 -21 23 c-22
23 -22 24 -22 505 0 448 -1 482 -17 490 -30 16 -355 15 -375 0z"/>
<path d="M36518 8798 c-17 -12 -18 -82 -18 -1207 0 -1004 2 -1197 14 -1215 12
-20 24 -22 127 -24 86 -1 126 2 161 15 37 13 52 14 72 5 20 -9 25 -8 30 4 3 9
6 178 6 377 0 199 4 368 9 376 7 11 55 13 247 12 268 -2 461 19 608 64 44 14
87 25 97 25 10 0 35 11 55 25 20 14 43 25 50 25 7 0 18 9 24 19 5 11 24 23 42
27 21 4 47 23 71 50 21 23 46 46 57 49 10 3 22 15 25 26 4 11 27 43 51 70 24
27 44 54 44 60 0 6 7 25 15 42 51 111 76 214 82 333 5 115 4 127 -27 234 -17
63 -38 123 -45 134 -7 12 -16 36 -20 53 -4 18 -12 36 -19 40 -7 5 -24 26 -38
48 -40 62 -107 127 -175 169 -34 21 -64 44 -67 51 -2 7 -22 16 -43 19 -21 4
-48 14 -59 21 -12 8 -50 21 -85 30 -35 9 -77 24 -94 33 -26 14 -101 16 -605
19 -462 3 -578 2 -592 -9z m1084 -388 c66 -10 95 -23 193 -88 52 -35 114 -106
115 -132 0 -8 10 -33 22 -55 19 -34 23 -55 23 -150 0 -92 -3 -116 -21 -150
-11 -22 -24 -52 -28 -67 -8 -34 -112 -142 -146 -153 -14 -4 -34 -15 -45 -25
-11 -9 -54 -28 -95 -41 -72 -23 -86 -24 -383 -24 -263 0 -309 2 -317 15 -11
17 -14 863 -3 873 10 11 610 8 685 -3z"/>
<path d="M28677 8422 c-30 -31 -34 -58 -13 -87 13 -18 14 -17 29 11 8 16 33
40 56 54 22 14 39 30 37 35 -1 6 -20 11 -42 13 -32 2 -44 -2 -67 -26z"/>
<path d="M17082 7648 c-7 -9 -7 -29 -2 -58 5 -25 9 -69 10 -98 0 -56 28 -112
54 -112 7 0 34 -11 60 -25 26 -14 55 -25 64 -25 9 0 28 -6 42 -13 26 -13 109
-33 170 -41 19 -2 56 -10 82 -16 53 -13 120 -10 125 6 2 6 -8 26 -22 45 -14
19 -33 51 -43 71 -9 21 -21 38 -25 38 -15 0 -87 63 -87 75 0 7 -20 18 -45 24
-25 6 -48 18 -51 26 -3 7 -19 17 -34 20 -16 4 -40 15 -54 26 -13 10 -47 24
-75 29 -28 5 -64 16 -80 25 -36 18 -75 19 -89 3z"/>
<path d="M17656 7134 c-33 -41 -63 -50 -116 -36 -55 14 -73 -7 -64 -75 8 -60
-11 -159 -37 -192 -11 -13 -19 -32 -19 -43 0 -10 -11 -29 -23 -41 -101 -95
-128 -117 -144 -117 -10 0 -29 -7 -42 -16 -24 -17 -150 -54 -183 -54 -9 0 -37
-10 -62 -22 -33 -15 -46 -28 -50 -49 -5 -28 -72 -103 -111 -125 -19 -11 -19
-12 8 -23 67 -26 353 -6 422 29 22 11 45 20 52 20 7 0 27 9 45 20 18 11 40 20
49 20 15 0 51 24 123 82 54 43 97 93 128 148 17 30 39 64 48 75 24 27 39 106
46 244 5 93 4 123 -9 154 -9 20 -20 37 -24 36 -4 0 -21 -16 -37 -35z"/>
<path d="M16032 6837 c-52 -47 -93 -96 -98 -115 -7 -25 33 -77 68 -88 10 -3
29 -15 41 -26 32 -29 99 -78 106 -78 3 0 13 5 21 10 12 8 11 12 -6 32 -11 13
-38 49 -59 82 -32 50 -39 69 -43 127 -5 71 -8 76 -30 56z"/>
<path d="M16291 6721 c-11 -7 10 -37 92 -133 151 -176 176 -187 286 -123 96
56 100 98 13 111 -26 4 -67 16 -92 26 -25 11 -66 24 -93 28 -26 5 -59 18 -75
28 -60 41 -108 72 -113 72 -2 0 -10 -4 -18 -9z"/>
<path d="M17945 5316 c-70 -20 -107 -35 -125 -50 -8 -8 -32 -19 -52 -25 -20
-7 -40 -20 -43 -30 -3 -10 -26 -40 -50 -66 -27 -28 -49 -63 -56 -88 -6 -23
-18 -60 -26 -82 -8 -22 -17 -74 -19 -115 -5 -63 -1 -91 25 -179 26 -89 36
-110 76 -152 25 -26 45 -52 45 -57 0 -5 17 -17 38 -26 20 -9 66 -32 102 -51
63 -33 68 -34 187 -34 112 -1 126 1 169 24 26 14 52 25 59 25 7 0 20 9 29 19
10 10 33 22 52 26 25 4 38 13 45 32 5 14 8 102 7 197 l-3 171 -177 0 c-200 0
-227 -8 -174 -50 26 -21 38 -23 133 -21 95 1 107 -1 119 -19 18 -25 19 -190 1
-225 -7 -14 -37 -38 -67 -54 -50 -27 -66 -30 -176 -34 -115 -4 -124 -3 -181
23 -38 17 -65 36 -72 51 -6 13 -17 24 -25 24 -21 0 -61 59 -86 130 -33 90 -33
230 -1 313 29 79 66 132 109 159 19 13 56 36 81 53 41 26 57 30 138 33 82 3
98 1 148 -22 31 -14 68 -35 82 -46 48 -37 103 -24 103 25 0 31 -4 35 -62 63
-138 67 -255 86 -353 58z"/>
<path d="M24323 5310 c-34 -10 -76 -28 -92 -39 -16 -12 -36 -21 -44 -21 -22 0
-133 -115 -141 -146 -4 -15 -16 -39 -27 -52 -10 -14 -19 -33 -19 -44 0 -10 -7
-33 -16 -49 -8 -17 -18 -61 -21 -97 -4 -54 0 -81 20 -142 58 -174 116 -246
258 -318 l86 -44 129 4 c124 3 131 4 194 37 36 19 82 43 102 53 61 32 71 56
71 180 0 70 -4 113 -11 120 -7 7 -12 29 -12 49 0 47 -6 49 -196 56 -148 5
-152 5 -158 -15 -4 -12 -2 -30 4 -42 10 -18 20 -20 120 -20 60 0 120 4 134 10
l26 10 0 -124 c0 -137 4 -130 -89 -192 -44 -29 -46 -29 -185 -29 -151 0 -171
5 -227 58 -14 13 -35 30 -48 36 -12 7 -30 29 -38 49 -8 20 -22 45 -30 54 -20
22 -43 119 -43 181 0 63 27 182 46 198 8 6 23 31 34 56 13 31 29 48 52 58 18
7 39 23 46 34 7 12 18 21 25 21 7 0 30 9 51 21 71 38 272 13 316 -40 8 -9 31
-23 49 -29 42 -15 57 -4 63 44 4 33 2 35 -56 65 -139 70 -252 85 -373 49z"/>
<path d="M25785 5324 c-51 -13 -141 -47 -155 -59 -8 -7 -32 -18 -52 -24 -20
-7 -40 -20 -43 -30 -3 -10 -26 -37 -50 -60 -25 -23 -45 -49 -45 -58 0 -8 -6
-29 -14 -46 -39 -87 -49 -139 -44 -237 4 -73 10 -108 26 -138 11 -22 24 -56
27 -76 4 -20 14 -38 24 -41 9 -3 34 -28 55 -55 21 -28 45 -50 53 -50 8 0 29
-10 46 -23 18 -13 55 -33 83 -46 45 -20 63 -22 170 -19 l119 3 90 52 c113 65
127 78 184 184 13 24 31 52 40 63 24 27 24 335 0 362 -9 11 -30 45 -48 77 -18
31 -49 73 -69 93 -41 39 -151 98 -215 115 -47 13 -152 20 -182 13z m185 -105
c30 -11 60 -29 67 -39 7 -10 29 -24 48 -30 20 -7 37 -20 41 -33 3 -12 16 -33
29 -47 54 -60 69 -107 69 -230 0 -87 -4 -124 -17 -150 -22 -46 -85 -133 -104
-144 -8 -4 -23 -16 -33 -25 -64 -60 -119 -75 -249 -69 -72 3 -94 9 -134 32
-26 16 -52 37 -58 47 -5 10 -16 19 -24 19 -21 0 -64 50 -76 90 -6 19 -20 54
-31 77 -16 35 -19 58 -15 135 7 175 73 279 228 359 71 36 176 39 259 8z"/>
<path d="M16614 5302 c-24 -20 -84 -113 -84 -131 0 -18 -40 -110 -66 -152 -13
-20 -30 -63 -40 -95 -9 -33 -22 -66 -28 -74 -16 -20 -66 -119 -66 -131 0 -9
-57 -129 -86 -179 -7 -14 -14 -34 -14 -46 0 -11 -7 -29 -15 -40 -8 -10 -15
-34 -15 -51 0 -30 3 -33 30 -33 22 0 33 7 44 28 8 16 21 34 29 41 8 6 18 28
22 49 11 57 54 123 91 138 25 10 85 14 225 14 224 0 263 -8 279 -54 12 -38 58
-127 94 -185 19 -29 32 -41 42 -37 9 3 24 6 35 6 16 0 18 5 12 33 -3 17 -11
39 -17 47 -25 31 -64 119 -71 158 -3 22 -12 43 -20 46 -7 2 -19 22 -25 43 -7
21 -18 45 -26 53 -7 8 -17 35 -23 59 -5 24 -14 47 -19 50 -11 7 -68 126 -77
161 -4 14 -25 61 -48 105 -22 44 -46 98 -52 120 -8 26 -22 45 -41 57 -37 21
-44 21 -70 0z m77 -190 c5 -15 15 -38 23 -52 7 -14 16 -42 20 -62 4 -21 11
-38 15 -38 5 0 16 -17 26 -37 9 -21 25 -56 36 -78 26 -57 35 -120 18 -131 -16
-10 -280 -15 -346 -7 -25 3 -44 11 -48 20 -6 16 24 88 57 135 10 15 26 51 35
80 16 54 89 198 107 210 16 11 46 -11 57 -40z"/>
<path d="M28349 5307 c-25 -7 -58 -22 -75 -33 -16 -12 -36 -23 -45 -27 -23 -8
-75 -104 -82 -151 -16 -105 55 -221 151 -245 26 -7 61 -19 78 -26 18 -8 49
-17 70 -21 22 -4 55 -14 74 -24 19 -9 56 -23 82 -30 71 -19 92 -47 96 -131 l4
-70 -45 -44 c-56 -53 -85 -60 -222 -52 -107 6 -123 12 -211 79 -28 21 -43 26
-67 21 -18 -3 -35 -8 -39 -12 -14 -13 22 -71 54 -85 18 -9 40 -20 48 -25 8 -5
42 -22 75 -38 52 -24 74 -28 169 -31 103 -4 112 -2 165 25 31 15 77 49 103 75
58 58 73 106 63 198 -7 63 -9 67 -64 120 -50 48 -65 57 -136 76 -170 45 -196
53 -217 68 -12 9 -31 16 -40 16 -10 0 -35 15 -55 34 -33 30 -37 39 -41 95 -4
60 -4 62 34 100 64 63 94 74 193 69 70 -3 95 -9 135 -32 26 -15 55 -33 63 -41
15 -16 59 -20 66 -7 3 4 8 21 11 39 7 31 7 31 -80 73 -79 38 -96 42 -178 46
-57 2 -108 -1 -137 -9z"/>
<path d="M15100 5288 c-11 -12 -20 -25 -20 -30 0 -22 51 -31 157 -29 115 3
145 -5 157 -36 4 -10 7 -181 6 -381 -1 -379 4 -436 41 -445 42 -11 44 7 49
425 l5 400 24 19 c21 17 39 20 135 18 116 -1 166 10 166 36 0 35 -55 42 -382
43 -315 2 -317 2 -338 -20z"/>
<path d="M19040 5301 l-25 -7 0 -459 0 -460 306 -3 307 -2 7 36 c4 26 3 39 -7
45 -7 5 -120 9 -250 9 -130 0 -243 3 -252 6 -14 5 -16 50 -16 399 0 232 -4
404 -10 419 -10 27 -17 29 -60 17z"/>
<path d="M20228 5294 l-28 -15 0 -433 c0 -398 1 -435 18 -455 26 -31 64 -32
73 -1 12 41 11 878 -1 901 -13 23 -26 23 -62 3z"/>
<path d="M20962 5294 l-22 -15 0 -423 c0 -435 4 -479 40 -489 49 -13 52 8 50
378 -1 400 -1 401 80 316 28 -30 58 -67 66 -82 8 -16 20 -32 27 -36 7 -4 35
-39 62 -77 27 -37 63 -82 80 -100 18 -17 35 -41 39 -53 4 -12 23 -36 42 -53
19 -17 40 -43 47 -58 7 -16 29 -43 49 -61 20 -18 40 -42 44 -54 8 -25 107
-127 124 -127 29 0 33 61 32 488 -1 481 -3 492 -61 444 -22 -17 -22 -21 -21
-339 l0 -322 -22 -21 c-21 -20 -24 -20 -33 -4 -5 10 -21 30 -35 45 -14 15 -52
64 -84 108 -32 45 -63 81 -67 81 -5 0 -17 17 -28 38 -10 20 -35 51 -54 69 -19
18 -38 42 -42 54 -4 11 -27 41 -51 64 -24 24 -44 51 -44 59 0 8 -8 21 -19 28
-23 16 -91 104 -91 118 0 9 -62 40 -79 40 -4 0 -17 -7 -29 -16z"/>
<path d="M22370 5291 c-11 -21 -15 -835 -4 -889 l6 -31 305 -3 c167 -2 313 0
323 4 10 4 27 19 36 33 31 47 18 50 -289 55 l-282 5 0 165 0 165 242 3 c234 2
242 3 248 23 4 11 4 31 1 45 l-6 24 -239 0 c-209 0 -240 2 -245 16 -10 27 -7
284 5 305 10 19 21 20 263 19 179 -1 260 2 279 11 34 15 34 23 -2 48 -28 20
-42 21 -330 21 -287 0 -301 -1 -311 -19z"/>
<path d="M26955 5301 l-30 -6 -3 -440 c-1 -242 0 -450 3 -462 l5 -23 319 0
c346 0 351 1 351 54 0 33 -23 36 -320 36 l-258 0 -6 23 c-9 33 -7 290 2 304 6
9 69 13 245 13 221 1 238 2 247 20 6 12 7 28 0 44 l-9 25 -233 1 c-206 0 -234
2 -245 17 -16 21 -18 259 -3 298 l10 26 253 -1 c241 -1 296 4 312 29 3 6 -8
19 -25 29 -27 17 -55 19 -308 19 -152 0 -290 -2 -307 -6z"/>
<path d="M29796 5293 c-9 -21 -9 -901 -1 -914 10 -16 72 -11 79 7 3 9 6 98 6
199 0 101 3 190 6 199 5 14 38 16 258 16 202 0 256 -3 272 -14 17 -13 19 -29
20 -184 2 -211 6 -232 44 -232 21 0 29 6 34 25 4 14 7 219 7 456 0 319 -3 434
-12 445 -14 17 -50 9 -63 -15 -5 -9 -8 -82 -7 -163 3 -161 -7 -213 -41 -224
-12 -3 -129 -7 -260 -8 -217 -1 -241 0 -249 16 -5 9 -9 100 -9 203 0 140 -3
187 -12 189 -49 15 -66 15 -72 -1z"/>
<path d="M31174 5289 c-12 -13 -14 -85 -13 -440 1 -233 4 -435 8 -449 l7 -25
315 -3 315 -2 17 34 c12 27 13 37 4 43 -7 4 -136 10 -287 13 l-275 5 -5 35
c-3 19 -3 93 0 165 l5 130 240 3 c263 2 271 4 256 60 l-7 27 -234 3 c-152 1
-238 6 -247 13 -16 14 -19 280 -3 310 10 18 24 19 268 19 211 1 260 3 277 15
19 15 19 15 -2 37 -21 20 -29 21 -323 22 -263 1 -303 -1 -316 -15z"/>
<path d="M32424 5289 c-13 -14 -14 -82 -12 -463 3 -472 3 -471 48 -459 30 8
39 51 42 205 2 104 7 151 16 160 9 9 48 13 134 13 l120 0 44 -50 c24 -27 44
-55 44 -61 0 -6 20 -31 44 -56 24 -26 47 -57 51 -70 4 -13 22 -36 39 -53 17
-16 41 -42 52 -57 15 -19 31 -27 60 -30 l39 -3 -3 35 c-3 24 -13 42 -33 58
-16 13 -37 38 -46 55 -8 18 -31 50 -50 72 -45 52 -48 57 -63 85 -7 13 -22 32
-34 42 -20 18 -20 19 -2 31 10 7 30 22 45 33 14 12 36 25 49 28 26 9 70 53
107 109 22 33 25 49 25 121 l0 83 -51 67 c-28 36 -58 66 -67 66 -8 0 -29 9
-46 19 -44 27 -99 33 -332 35 -178 1 -207 -1 -220 -15z m459 -76 c34 -9 69
-24 77 -34 8 -9 26 -22 38 -29 32 -16 52 -68 52 -132 0 -49 -4 -57 -50 -109
-60 -68 -65 -70 -304 -70 -115 0 -172 3 -182 12 -11 9 -14 45 -14 171 0 155 1
159 25 183 23 24 29 25 160 25 95 0 154 -5 198 -17z"/>
<path d="M33749 5296 c-11 -12 -12 -896 0 -914 6 -10 73 -13 315 -13 169 0
311 3 316 6 4 3 11 17 14 31 14 53 6 54 -280 54 -199 0 -265 3 -271 13 -13 20
-16 282 -4 306 11 20 19 21 224 22 240 2 271 5 275 34 6 48 -2 50 -250 52
-206 3 -234 5 -245 20 -16 22 -18 247 -2 292 l11 32 259 -2 c262 -1 289 2 289
36 0 35 -26 38 -336 39 -181 1 -309 -3 -315 -8z"/>
</g>
</svg>
